<svg xmlns="http://www.w3.org/2000/svg" xmlns:xlink="http://www.w3.org/1999/xlink" width="1080" zoomAndPan="magnify" viewBox="0 0 810 809.999993" height="1080" preserveAspectRatio="xMidYMid meet" version="1.0"><defs><g/><clipPath id="8f80368d4d"><path d="M 300 169.039062 L 592.214844 169.039062 L 592.214844 405.289062 L 300 405.289062 Z M 300 169.039062 " clip-rule="nonzero"/></clipPath><clipPath id="6687bc7fb6"><path d="M 217.964844 169.039062 L 510 169.039062 L 510 405.289062 L 217.964844 405.289062 Z M 217.964844 169.039062 " clip-rule="nonzero"/></clipPath></defs><g clip-path="url(#8f80368d4d)"><path fill="#9b3400" d="M 592.207031 405.183594 L 574.886719 399.160156 L 499.746094 373.03125 L 475.800781 364.707031 L 489.640625 356.640625 L 504.261719 348.128906 L 446.542969 252.992188 L 436.222656 270.011719 L 399.78125 330.078125 L 388.835938 348.128906 L 396.144531 352.386719 L 417.296875 364.710938 L 391.441406 373.699219 L 318.207031 399.160156 L 300.886719 405.183594 L 316.164062 380.414062 L 318.207031 377.09375 L 332.726562 353.546875 L 373.707031 287.089844 L 410.230469 227.859375 L 436.332031 185.527344 L 446.550781 168.957031 L 456.765625 185.527344 L 574.886719 377.09375 L 592.207031 405.183594 " fill-opacity="1" fill-rule="nonzero"/></g><path fill="#692300" d="M 410.230469 227.859375 L 436.222656 270.011719 L 399.78125 330.078125 L 373.707031 287.089844 L 410.230469 227.859375 " fill-opacity="1" fill-rule="nonzero"/><g clip-path="url(#6687bc7fb6)"><path fill="#af3b00" d="M 217.785156 405.183594 L 235.101562 377.09375 L 353.226562 185.527344 L 363.445312 168.957031 L 373.664062 185.527344 L 491.78125 377.09375 L 509.105469 405.183594 L 491.78125 399.160156 L 392.695312 364.703125 L 421.15625 348.128906 L 363.441406 252.992188 L 305.730469 348.128906 L 334.191406 364.710938 L 235.101562 399.160156 L 217.785156 405.183594 " fill-opacity="1" fill-rule="nonzero"/></g><g fill="#000000" fill-opacity="1"><g transform="translate(283.196879, 497.478091)"><g><path d="M 18.453125 -72.203125 L 18.453125 0 L 11.234375 0 L 11.234375 -39.234375 L 7.625 -39.234375 L 7.625 0 L 0.328125 0 L 0.328125 -65.625 C 0.328125 -67.863281 0.847656 -69.519531 1.890625 -70.59375 C 2.929688 -71.664062 4.601562 -72.203125 6.90625 -72.203125 Z M 7.78125 -46.359375 L 10.984375 -46.359375 L 10.984375 -64.984375 L 7.78125 -64.984375 Z M 7.78125 -46.359375 "/></g></g></g><g fill="#000000" fill-opacity="1"><g transform="translate(313.674854, 497.478091)"><g><path d="M 0.328125 -72.203125 L 11.875 -72.203125 C 14.175781 -72.203125 15.847656 -71.664062 16.890625 -70.59375 C 17.929688 -69.519531 18.453125 -67.863281 18.453125 -65.625 L 18.453125 0 L 11.15625 0 L 11.15625 -64.984375 L 7.546875 -64.984375 L 7.546875 0 L 0.328125 0 Z M 0.328125 -72.203125 "/></g></g></g><g fill="#000000" fill-opacity="1"><g transform="translate(344.152829, 497.478091)"><g><path d="M 0.484375 -72.203125 L 7.453125 -72.203125 L 7.453125 -7.453125 L 10.90625 -7.453125 L 10.90625 -72.203125 L 18.046875 -72.203125 L 18.046875 -6.34375 C 18.046875 -4.195312 17.5625 -2.613281 16.59375 -1.59375 C 15.632812 -0.582031 14.113281 -0.078125 12.03125 -0.078125 C 9.945312 0.0234375 7.863281 0.0234375 5.78125 -0.078125 C 4.175781 -0.128906 2.878906 -0.632812 1.890625 -1.59375 C 0.898438 -2.5625 0.40625 -3.847656 0.40625 -5.453125 Z M 0.484375 -72.203125 "/></g></g></g><g fill="#000000" fill-opacity="1"><g transform="translate(374.309996, 497.478091)"><g><path d="M 14.359375 -39.3125 L 0.234375 -39.3125 L 0.234375 -46.046875 L 14.359375 -46.046875 Z M 14.359375 -39.3125 "/></g></g></g><g fill="#000000" fill-opacity="1"><g transform="translate(400.69761, 497.478091)"><g><path d="M 29.203125 0 L 6.09375 0 C 4.0625 -0.15625 2.59375 -0.710938 1.6875 -1.671875 C 0.78125 -2.640625 0.328125 -4.25 0.328125 -6.5 L 0.328125 -72.203125 L 7.703125 -72.203125 L 7.703125 -7.453125 L 11.234375 -7.453125 L 11.234375 -72.203125 L 18.453125 -72.203125 L 18.453125 -7.375 L 22.140625 -7.375 L 22.140625 -72.203125 L 29.28125 -72.203125 L 29.28125 -71.078125 C 29.28125 -60.328125 29.28125 -49.644531 29.28125 -39.03125 C 29.28125 -28.414062 29.253906 -17.734375 29.203125 -6.984375 Z M 29.203125 0 "/></g></g></g><g fill="#000000" fill-opacity="1"><g transform="translate(442.002997, 497.478091)"><g><path d="M 18.296875 -47.40625 C 18.296875 -46.65625 18.171875 -46.050781 17.921875 -45.59375 C 17.679688 -45.144531 17.359375 -44.757812 16.953125 -44.4375 C 16.554688 -44.113281 16.117188 -43.84375 15.640625 -43.625 C 15.160156 -43.414062 14.679688 -43.179688 14.203125 -42.921875 C 17.035156 -41.472656 18.425781 -39.09375 18.375 -35.78125 L 18.375 0 L 11.15625 0 L 11.15625 -39.3125 L 7.546875 -39.3125 L 7.546875 0 L 0.328125 0 L 0.328125 -72.203125 L 12.59375 -72.203125 C 14.625 -72.203125 16.09375 -71.734375 17 -70.796875 C 17.914062 -69.859375 18.375 -68.585938 18.375 -66.984375 Z M 10.90625 -46.765625 L 10.90625 -64.984375 L 7.703125 -64.984375 L 7.703125 -46.765625 Z M 10.90625 -46.765625 "/></g></g></g><g fill="#000000" fill-opacity="1"><g transform="translate(472.400769, 497.478091)"><g><path d="M 18.453125 -72.203125 L 18.453125 0 L 11.234375 0 L 11.234375 -39.234375 L 7.625 -39.234375 L 7.625 0 L 0.328125 0 L 0.328125 -65.625 C 0.328125 -67.863281 0.847656 -69.519531 1.890625 -70.59375 C 2.929688 -71.664062 4.601562 -72.203125 6.90625 -72.203125 Z M 7.78125 -46.359375 L 10.984375 -46.359375 L 10.984375 -64.984375 L 7.78125 -64.984375 Z M 7.78125 -46.359375 "/></g></g></g><g fill="#000000" fill-opacity="1"><g transform="translate(502.878753, 497.478091)"><g><path d="M 7.375 0 L 0.328125 0 L 0.328125 -72.203125 L 13.640625 -72.203125 C 14.972656 -72.140625 16.066406 -71.613281 16.921875 -70.625 C 17.773438 -69.644531 18.203125 -68.457031 18.203125 -67.0625 C 18.316406 -57.21875 18.316406 -47.429688 18.203125 -37.703125 C 18.203125 -36.253906 17.664062 -35.019531 16.59375 -34 C 15.53125 -32.988281 14.273438 -32.457031 12.828125 -32.40625 C 11.972656 -32.351562 11.117188 -32.335938 10.265625 -32.359375 C 9.410156 -32.390625 8.445312 -32.40625 7.375 -32.40625 Z M 10.828125 -64.984375 L 7.625 -64.984375 L 7.625 -39.3125 L 10.828125 -39.3125 Z M 10.828125 -64.984375 "/></g></g></g><g fill="#692300" fill-opacity="1"><g transform="translate(261.087958, 548.885588)"><g><path d="M 4.652344 -22.582031 L 0.679688 -1.671875 C 0.46875 -0.679688 1.203125 0 2.246094 0 C 3.660156 0 3.921875 -0.679688 4.078125 -1.726562 L 4.808594 -5.90625 L 9.828125 -5.90625 L 10.453125 -1.828125 C 10.664062 -0.730469 11.082031 0 12.546875 0 C 13.644531 0 14.324219 -0.730469 14.164062 -1.828125 L 10.351562 -22.582031 C 10.089844 -23.992188 8.992188 -24.933594 7.527344 -24.933594 C 6.0625 -24.933594 4.964844 -23.992188 4.652344 -22.582031 Z M 5.4375 -9.460938 L 7.476562 -21.171875 L 9.460938 -9.460938 Z M 5.4375 -9.460938 "/></g></g></g><g fill="#692300" fill-opacity="1"><g transform="translate(281.683733, 548.885588)"><g/></g></g><g fill="#692300" fill-opacity="1"><g transform="translate(294.752262, 548.885588)"><g><path d="M 6.535156 -15.367188 C 5.75 -16.101562 4.546875 -17.667969 4.546875 -19.238281 C 4.546875 -20.855469 5.28125 -22.476562 6.953125 -22.476562 C 8.414062 -22.476562 8.992188 -21.640625 9.148438 -20.386719 C 9.355469 -19.132812 9.566406 -18.503906 10.976562 -18.503906 C 12.390625 -18.503906 12.753906 -19.65625 12.546875 -20.960938 C 12.074219 -23.835938 9.722656 -25.195312 6.953125 -25.195312 C 3.085938 -25.195312 1.148438 -23.3125 1.148438 -19.238281 C 1.148438 -15.105469 4.390625 -12.390625 7.476562 -9.410156 C 8.625 -8.3125 9.410156 -6.847656 9.410156 -5.699219 C 9.410156 -4.078125 8.675781 -2.507812 6.898438 -2.507812 C 5.539062 -2.507812 4.964844 -3.34375 4.808594 -4.601562 C 4.703125 -5.539062 4.128906 -6.429688 2.925781 -6.429688 C 1.621094 -6.324219 1.097656 -5.4375 1.308594 -4.078125 C 1.726562 -1.148438 3.867188 0.261719 6.898438 0.261719 C 10.820312 0.261719 12.808594 -1.726562 12.808594 -5.699219 C 12.808594 -9.878906 9.828125 -12.230469 6.535156 -15.367188 Z M 6.535156 -15.367188 "/></g></g></g><g fill="#692300" fill-opacity="1"><g transform="translate(314.459402, 548.885588)"><g><path d="M 7.738281 -25.195312 C 4.390625 -25.195312 1.566406 -23.15625 1.566406 -18.921875 L 1.566406 -6.011719 C 1.566406 -1.777344 4.390625 0.261719 7.738281 0.261719 C 11.238281 0.261719 14.0625 -1.777344 14.0625 -6.011719 L 14.0625 -18.921875 C 14.0625 -23.15625 11.238281 -25.195312 7.738281 -25.195312 Z M 10.402344 -5.75 C 10.402344 -3.972656 9.617188 -2.71875 7.738281 -2.71875 C 6.011719 -2.71875 5.226562 -3.972656 5.226562 -5.75 L 5.226562 -19.183594 C 5.226562 -20.960938 6.011719 -22.269531 7.738281 -22.269531 C 9.617188 -22.269531 10.402344 -20.960938 10.402344 -19.183594 Z M 10.402344 -5.75 "/></g></g></g><g fill="#692300" fill-opacity="1"><g transform="translate(335.839268, 548.885588)"><g><path d="M 1.566406 -1.828125 C 1.566406 -0.730469 2.300781 0 3.398438 0 C 4.496094 0 5.226562 -0.730469 5.226562 -1.828125 L 5.226562 -11.289062 L 9.933594 -11.289062 C 10.769531 -11.289062 11.34375 -11.867188 11.34375 -12.753906 C 11.34375 -13.589844 10.769531 -14.164062 9.933594 -14.164062 L 5.226562 -14.164062 L 5.226562 -21.851562 L 11.289062 -21.851562 C 12.179688 -21.851562 12.808594 -22.476562 12.808594 -23.417969 C 12.808594 -24.308594 12.179688 -24.933594 11.289062 -24.933594 L 5.382812 -24.933594 C 1.988281 -24.933594 1.566406 -23.992188 1.566406 -21.171875 Z M 1.566406 -1.828125 "/></g></g></g><g fill="#692300" fill-opacity="1"><g transform="translate(355.180504, 548.885588)"><g><path d="M 0.679688 -23.417969 C 0.679688 -22.476562 1.308594 -21.851562 2.246094 -21.851562 L 4.914062 -21.851562 L 4.914062 -1.882812 C 4.914062 -0.730469 5.644531 0 6.796875 0 C 7.945312 0 8.675781 -0.730469 8.675781 -1.882812 L 8.675781 -21.851562 L 11.394531 -21.851562 C 12.285156 -21.851562 12.910156 -22.476562 12.910156 -23.417969 C 12.910156 -24.308594 12.285156 -24.933594 11.394531 -24.933594 L 2.246094 -24.933594 C 1.308594 -24.933594 0.679688 -24.308594 0.679688 -23.417969 Z M 0.679688 -23.417969 "/></g></g></g><g fill="#692300" fill-opacity="1"><g transform="translate(374.52174, 548.885588)"><g><path d="M 14.375 -12.964844 C 14.375 -12.179688 14.269531 -11.449219 14.21875 -10.714844 C 14.0625 -9.410156 14.113281 -9.410156 13.90625 -10.714844 C 13.746094 -11.761719 13.589844 -12.703125 13.433594 -13.589844 L 11.449219 -23.574219 C 11.289062 -24.410156 10.664062 -24.933594 9.828125 -24.933594 C 8.992188 -24.933594 8.363281 -24.410156 8.207031 -23.574219 L 6.21875 -13.589844 C 6.011719 -12.648438 5.800781 -11.65625 5.644531 -10.613281 C 5.4375 -9.355469 5.488281 -9.355469 5.4375 -10.664062 C 5.382812 -11.34375 5.332031 -12.074219 5.332031 -12.808594 C 5.332031 -14.0625 5.121094 -15.316406 4.601562 -23.105469 C 4.546875 -24.203125 3.921875 -24.933594 2.824219 -24.933594 C 1.671875 -24.933594 0.835938 -24.203125 0.941406 -23.105469 L 2.875 -1.566406 C 2.980469 -0.628906 3.761719 0 4.703125 0 C 5.644531 0 6.273438 -0.628906 6.480469 -1.515625 L 9.773438 -19.238281 L 13.226562 -1.515625 C 13.433594 -0.628906 14.0625 0 15.003906 0 C 15.941406 0 16.726562 -0.628906 16.832031 -1.566406 L 18.714844 -23.105469 C 18.816406 -24.203125 17.980469 -24.933594 16.882812 -24.933594 C 15.734375 -24.933594 15.105469 -24.203125 15.054688 -23.105469 Z M 14.375 -12.964844 "/></g></g></g><g fill="#692300" fill-opacity="1"><g transform="translate(399.92659, 548.885588)"><g><path d="M 4.652344 -22.582031 L 0.679688 -1.671875 C 0.46875 -0.679688 1.203125 0 2.246094 0 C 3.660156 0 3.921875 -0.679688 4.078125 -1.726562 L 4.808594 -5.90625 L 9.828125 -5.90625 L 10.453125 -1.828125 C 10.664062 -0.730469 11.082031 0 12.546875 0 C 13.644531 0 14.324219 -0.730469 14.164062 -1.828125 L 10.351562 -22.582031 C 10.089844 -23.992188 8.992188 -24.933594 7.527344 -24.933594 C 6.0625 -24.933594 4.964844 -23.992188 4.652344 -22.582031 Z M 5.4375 -9.460938 L 7.476562 -21.171875 L 9.460938 -9.460938 Z M 5.4375 -9.460938 "/></g></g></g><g fill="#692300" fill-opacity="1"><g transform="translate(420.522365, 548.885588)"><g><path d="M 8.3125 -24.933594 L 4.703125 -24.933594 C 2.664062 -24.933594 1.566406 -23.835938 1.566406 -21.851562 L 1.566406 -1.777344 C 1.566406 -0.730469 2.300781 0 3.34375 0 C 4.390625 0 5.121094 -0.730469 5.121094 -1.777344 L 5.121094 -11.34375 L 7.578125 -11.34375 L 9.671875 -1.828125 C 9.933594 -0.730469 10.558594 0 11.710938 0 C 12.859375 0 13.589844 -0.941406 13.328125 -2.039062 L 10.769531 -11.96875 C 12.546875 -12.703125 13.90625 -14.375 13.957031 -17.460938 L 13.957031 -18.398438 C 13.957031 -23.367188 11.605469 -24.933594 8.3125 -24.933594 Z M 5.121094 -22.164062 L 7.527344 -22.164062 C 9.933594 -22.164062 10.453125 -20.492188 10.453125 -18.714844 L 10.453125 -17.511719 C 10.453125 -15.734375 9.933594 -14.113281 7.632812 -14.0625 L 5.121094 -14.0625 Z M 5.121094 -22.164062 "/></g></g></g><g fill="#692300" fill-opacity="1"><g transform="translate(441.274958, 548.885588)"><g><path d="M 1.566406 -3.816406 C 1.566406 -0.417969 1.988281 0 5.382812 0 L 11.289062 0 C 12.179688 0 12.808594 -0.628906 12.808594 -1.566406 C 12.808594 -2.457031 12.179688 -3.085938 11.289062 -3.085938 L 5.226562 -3.085938 L 5.226562 -11.289062 L 9.933594 -11.289062 C 10.769531 -11.289062 11.34375 -11.867188 11.34375 -12.753906 C 11.34375 -13.589844 10.769531 -14.164062 9.933594 -14.164062 L 5.226562 -14.164062 L 5.226562 -21.851562 L 11.289062 -21.851562 C 12.179688 -21.851562 12.808594 -22.476562 12.808594 -23.417969 C 12.808594 -24.308594 12.179688 -24.933594 11.289062 -24.933594 L 5.382812 -24.933594 C 1.988281 -24.933594 1.566406 -24.515625 1.566406 -21.171875 Z M 1.566406 -3.816406 "/></g></g></g><g fill="#692300" fill-opacity="1"><g transform="translate(460.877555, 548.885588)"><g/></g></g><g fill="#692300" fill-opacity="1"><g transform="translate(473.946084, 548.885588)"><g><path d="M 0.679688 -23.417969 C 0.679688 -22.476562 1.308594 -21.851562 2.246094 -21.851562 L 4.914062 -21.851562 L 4.914062 -1.882812 C 4.914062 -0.730469 5.644531 0 6.796875 0 C 7.945312 0 8.675781 -0.730469 8.675781 -1.882812 L 8.675781 -21.851562 L 11.394531 -21.851562 C 12.285156 -21.851562 12.910156 -22.476562 12.910156 -23.417969 C 12.910156 -24.308594 12.285156 -24.933594 11.394531 -24.933594 L 2.246094 -24.933594 C 1.308594 -24.933594 0.679688 -24.308594 0.679688 -23.417969 Z M 0.679688 -23.417969 "/></g></g></g><g fill="#692300" fill-opacity="1"><g transform="translate(493.287329, 548.885588)"><g><path d="M 7.738281 -25.195312 C 4.390625 -25.195312 1.566406 -23.15625 1.566406 -18.921875 L 1.566406 -6.011719 C 1.566406 -1.777344 4.390625 0.261719 7.738281 0.261719 C 11.238281 0.261719 14.0625 -1.777344 14.0625 -6.011719 L 14.0625 -18.921875 C 14.0625 -23.15625 11.238281 -25.195312 7.738281 -25.195312 Z M 10.402344 -5.75 C 10.402344 -3.972656 9.617188 -2.71875 7.738281 -2.71875 C 6.011719 -2.71875 5.226562 -3.972656 5.226562 -5.75 L 5.226562 -19.183594 C 5.226562 -20.960938 6.011719 -22.269531 7.738281 -22.269531 C 9.617188 -22.269531 10.402344 -20.960938 10.402344 -19.183594 Z M 10.402344 -5.75 "/></g></g></g><g fill="#692300" fill-opacity="1"><g transform="translate(514.667195, 548.885588)"><g><path d="M 7.738281 -25.195312 C 4.390625 -25.195312 1.566406 -23.15625 1.566406 -18.921875 L 1.566406 -6.011719 C 1.566406 -1.777344 4.390625 0.261719 7.738281 0.261719 C 11.238281 0.261719 14.0625 -1.777344 14.0625 -6.011719 L 14.0625 -18.921875 C 14.0625 -23.15625 11.238281 -25.195312 7.738281 -25.195312 Z M 10.402344 -5.75 C 10.402344 -3.972656 9.617188 -2.71875 7.738281 -2.71875 C 6.011719 -2.71875 5.226562 -3.972656 5.226562 -5.75 L 5.226562 -19.183594 C 5.226562 -20.960938 6.011719 -22.269531 7.738281 -22.269531 C 9.617188 -22.269531 10.402344 -20.960938 10.402344 -19.183594 Z M 10.402344 -5.75 "/></g></g></g><g fill="#692300" fill-opacity="1"><g transform="translate(536.047061, 548.885588)"><g><path d="M 3.503906 -24.933594 C 2.40625 -24.933594 1.671875 -24.203125 1.671875 -23.105469 L 1.671875 -3.398438 C 1.671875 -0.523438 2.457031 0 5.070312 0 L 10.507812 0 C 11.449219 0 12.074219 -0.628906 12.074219 -1.621094 C 12.074219 -2.5625 11.449219 -3.1875 10.507812 -3.1875 L 5.332031 -3.1875 L 5.332031 -23.105469 C 5.332031 -24.203125 4.601562 -24.933594 3.503906 -24.933594 Z M 3.503906 -24.933594 "/></g></g></g></svg>