<svg width="20" height="23" viewBox="0 0 20 23" fill="none" xmlns="http://www.w3.org/2000/svg">
<path d="M18.7921 12.7251H1.2079C0.887547 12.7251 0.580312 12.8505 0.353786 13.0736C0.127261 13.2968 0 13.5994 0 13.9149C0 14.2305 0.127261 14.5331 0.353786 14.7563C0.580312 14.9794 0.887547 15.1047 1.2079 15.1047C1.49806 15.1047 1.73327 15.34 1.73327 15.6301V22.0091C1.73327 22.2719 1.83924 22.5239 2.02788 22.7097C2.21651 22.8955 2.47235 22.9999 2.73911 22.9999H3.14324C3.27646 23.0017 3.4087 22.9773 3.5323 22.9283C3.65589 22.8793 3.76837 22.8066 3.8632 22.7145C3.95803 22.6223 4.03333 22.5125 4.08472 22.3914C4.1361 22.2703 4.16256 22.1404 4.16255 22.0091V20.9422C4.16255 17.7183 6.77606 15.1047 10 15.1047C13.2239 15.1047 15.8374 17.7183 15.8374 20.9422V22.0091C15.8374 22.1404 15.8639 22.2703 15.9153 22.3914C15.9667 22.5125 16.042 22.6223 16.1368 22.7145C16.2316 22.8066 16.3441 22.8793 16.4677 22.9283C16.5913 22.9773 16.7235 23.0017 16.8568 22.9999H17.2609C17.5276 22.9999 17.7835 22.8955 17.9721 22.7097C18.1607 22.5239 18.2667 22.2719 18.2667 22.0091V15.6301C18.2667 15.34 18.5019 15.1047 18.7921 15.1047C19.1117 15.1048 19.4182 14.98 19.6446 14.7578C19.871 14.5357 19.9988 14.2342 20 13.9194C20.0006 13.7628 19.9698 13.6076 19.9093 13.4627C19.8489 13.3178 19.76 13.1861 19.6478 13.0752C19.5356 12.9642 19.4022 12.8762 19.2554 12.8161C19.1085 12.7561 18.9511 12.7251 18.7921 12.7251ZM3.28693 22.0136C3.28694 22.032 3.2832 22.0502 3.27592 22.0671C3.26865 22.084 3.25799 22.0993 3.24459 22.1121C3.23118 22.1249 3.2153 22.1349 3.19789 22.1415C3.18048 22.1482 3.1619 22.1513 3.14324 22.1507H2.73911C2.70177 22.1507 2.66588 22.1364 2.63906 22.1108C2.61224 22.0852 2.59659 22.0503 2.59542 22.0136V15.4505C2.59542 15.2596 2.75022 15.1047 2.94118 15.1047C3.13213 15.1047 3.28693 15.2596 3.28693 15.4505V22.0136ZM17.4046 22.0136C17.4034 22.0503 17.3878 22.0852 17.3609 22.1108C17.3341 22.1364 17.2982 22.1507 17.2609 22.1507H16.8568C16.8381 22.1513 16.8195 22.1482 16.8021 22.1415C16.7847 22.1349 16.7688 22.1249 16.7554 22.1121C16.742 22.0993 16.7313 22.084 16.7241 22.0671C16.7168 22.0502 16.713 22.032 16.7131 22.0136V15.4505C16.7131 15.2596 16.8679 15.1047 17.0588 15.1047C17.2498 15.1047 17.4046 15.2596 17.4046 15.4505V22.0136ZM19.1334 13.9238C19.1322 14.0126 19.0959 14.0974 19.0321 14.1602C18.9684 14.223 18.8822 14.2588 18.7921 14.2599H1.2079C1.1162 14.2599 1.02826 14.2241 0.963416 14.1602C0.898574 14.0963 0.862146 14.0097 0.862146 13.9194C0.862146 13.829 0.898574 13.7424 0.963416 13.6785C1.02826 13.6147 1.1162 13.5788 1.2079 13.5788H18.7921C18.8822 13.5799 18.9684 13.6157 19.0321 13.6785C19.0959 13.7413 19.1322 13.8261 19.1334 13.9149V13.9238ZM3.78087 10.2748H6.65807C6.94388 10.2748 7.17557 10.5065 7.17557 10.7923C7.17557 11.0781 6.94388 11.3098 6.65807 11.3098H5.866C5.75166 11.3098 5.63124 11.316 5.53972 11.3845C5.50795 11.4083 5.47934 11.4363 5.45479 11.468C5.39492 11.5451 5.36248 11.6395 5.36248 11.7366C5.36248 11.8337 5.39492 11.9281 5.45479 12.0052C5.5735 12.1582 5.79181 12.1634 5.98543 12.1634H9.31346C9.45025 12.1634 9.58941 12.1966 9.72372 12.1706C9.79144 12.1575 9.85518 12.1293 9.91001 12.088C9.96483 12.0467 10.0093 11.9935 10.0398 11.9326C10.0704 11.8716 10.0863 11.8046 10.0863 11.7366C10.0863 11.6686 10.0704 11.6016 10.0398 11.5406C10.0093 11.4797 9.96483 11.4265 9.91001 11.3852C9.85518 11.3439 9.79144 11.3156 9.72372 11.3026C9.71246 11.3004 9.70114 11.2986 9.68979 11.2973C9.57655 11.2842 9.4618 11.3098 9.3478 11.3098H8.5597C8.2739 11.3098 8.04221 11.0781 8.04221 10.7923C8.04221 10.5065 8.2739 10.2748 8.5597 10.2748H11.4369C12.1856 10.2736 12.9033 9.98011 13.4328 9.45862C13.9622 8.93712 14.2601 8.23016 14.2613 7.49266V2.7821C14.2601 2.0446 13.9622 1.33764 13.4328 0.816151C12.9033 0.294659 12.1856 0.00116971 11.4369 0H3.78087C3.03179 0 2.31338 0.293114 1.7837 0.81486C1.25402 1.33661 0.956443 2.04424 0.956443 2.7821V7.49266C0.956443 8.23052 1.25402 8.93816 1.7837 9.45991C2.31338 9.98165 3.03179 10.2748 3.78087 10.2748ZM11.4369 9.42554H3.78087C3.33699 9.42444 2.90659 9.27513 2.55998 9.00199C2.03558 8.58876 2.51005 7.9217 3.1777 7.9217H12.0406C12.7075 7.9217 13.1808 8.58827 12.657 9.00104C12.3106 9.27404 11.8806 9.42365 11.4369 9.42554ZM3.78087 0.85365H11.4369C11.9561 0.85365 12.4541 1.05683 12.8213 1.41848C13.1884 1.78014 13.3947 2.27065 13.3947 2.7821C13.3947 5.15405 11.4719 7.0769 9.0999 7.0769H6.11787C3.74592 7.0769 1.82308 5.15405 1.82308 2.7821C1.82308 2.27065 2.02935 1.78014 2.3965 1.41848C2.76366 1.05683 3.26163 0.85365 3.78087 0.85365ZM15.1156 11.0048C15.7358 10.9299 16.4441 10.9307 17.0643 11.0054C17.4032 11.0462 17.7188 11.1969 17.9614 11.4336C18.0156 11.4956 18.0513 11.5711 18.0646 11.6518C18.0778 11.7326 18.0681 11.8153 18.0365 11.891C18.0048 11.9666 17.9525 12.0321 17.8854 12.0802C17.8182 12.1283 17.7388 12.1571 17.656 12.1634C17.599 12.1635 17.5425 12.1521 17.49 12.1301C17.4375 12.108 17.3901 12.0757 17.3507 12.0351C17.2209 11.9157 17.05 11.8493 16.8725 11.8493C16.6949 11.8493 16.524 11.9157 16.3942 12.0351C16.3112 12.111 16.2021 12.1531 16.0889 12.1531C15.9757 12.1531 15.8666 12.111 15.7836 12.0351C15.6567 11.912 15.4857 11.8429 15.3076 11.8429C15.2278 11.8429 15.1495 11.8568 15.076 11.8831C14.8948 11.948 14.7418 12.1129 14.5512 12.0867C14.4545 12.0733 14.3648 12.0294 14.2958 11.9614C14.2268 11.8934 14.1821 11.8051 14.1686 11.7098C14.1419 11.5218 14.2848 11.3588 14.4427 11.2534C14.6427 11.1199 14.8731 11.0341 15.1156 11.0048Z" fill="white"/>
</svg>
